<?xml version="1.0" standalone="no"?><!DOCTYPE svg PUBLIC "-//W3C//DTD SVG 1.1//EN" "http://www.w3.org/Graphics/SVG/1.1/DTD/svg11.dtd"><svg t="1774415149163" class="icon" viewBox="0 0 1024 1024" version="1.1" xmlns="http://www.w3.org/2000/svg" p-id="2729" xmlns:xlink="http://www.w3.org/1999/xlink" width="200" height="200"><path d="M48 496C56 246.4 262.4 41.6 521.6 48c260.8 4.8 459.2 219.2 454.4 472-4.8 260.8-217.6 459.2-467.2 456C238.4 974.4 38.4 750.4 48 496z m907.2 16c0-246.4-200-443.2-448-443.2-240 0-440 200-438.4 443.2 0 251.2 208 449.6 454.4 443.2 233.6-4.8 432-196.8 432-443.2z" fill="#A51616" p-id="2730"></path><path d="M955.2 512c0 246.4-200 438.4-433.6 443.2-244.8 6.4-452.8-192-452.8-443.2 0-241.6 198.4-443.2 438.4-443.2 248-1.6 448 196.8 448 443.2z m-102.4 0c-1.6-190.4-152-339.2-337.6-340.8-192-1.6-345.6 150.4-345.6 342.4 0 187.2 150.4 339.2 340.8 340.8 188.8 0 342.4-153.6 342.4-342.4zM848 312c9.6 4.8 17.6 6.4 24-3.2 6.4-8 3.2-16-1.6-24-4.8-8-11.2-16-16-22.4-16 12.8-33.6 25.6-51.2 35.2 3.2 4.8 8 11.2 9.6 14.4 8-6.4 14.4-11.2 22.4-16 1.6 0 1.6 1.6 3.2 1.6-3.2 6.4-4.8 14.4-8 20.8-4.8 11.2-3.2 19.2 6.4 25.6 3.2-11.2 6.4-20.8 11.2-32zM126.4 467.2c0-1.6 0-1.6-1.6-3.2 9.6-4.8 17.6-11.2 28.8-17.6v-19.2c-12.8 9.6-24 17.6-36.8 27.2-8-9.6-14.4-19.2-20.8-30.4v14.4c14.4 4.8 17.6 17.6 25.6 25.6 0 1.6-1.6 1.6-1.6 3.2-8-1.6-16-1.6-25.6-3.2v16c20.8 1.6 38.4 1.6 59.2 3.2 0-4.8 0-11.2 1.6-16H126.4z m324.8 436.8c-12.8 9.6-16 16-9.6 24s25.6 9.6 33.6 3.2c9.6-6.4 8-16-3.2-32 9.6-8 12.8-16 6.4-22.4-6.4-6.4-25.6-6.4-33.6 0s-6.4 16 6.4 27.2zM662.4 880c-6.4 14.4-4.8 22.4 3.2 25.6 9.6 4.8 27.2-1.6 32-12.8 4.8-11.2 1.6-17.6-17.6-27.2 3.2-8 8-17.6-3.2-22.4-9.6-4.8-25.6 3.2-30.4 12.8-4.8 11.2 0 17.6 16 24z m-512-224c-1.6-4.8-3.2-8-4.8-11.2-6.4-11.2-14.4-16-24-12.8-8 3.2-11.2 12.8-8 24 3.2 9.6 6.4 20.8 11.2 32 4.8-9.6 48-25.6 59.2-22.4-3.2-8-4.8-14.4-6.4-19.2-9.6 1.6-17.6 6.4-27.2 9.6z m403.2 281.6c11.2 0 22.4-4.8 30.4-14.4 12.8-12.8 12.8-35.2 1.6-46.4-8-6.4-20.8-8-30.4-1.6-8 6.4-12.8 16-9.6 25.6 3.2 11.2 12.8 12.8 22.4 12.8h4.8c0 1.6 1.6 1.6 1.6 3.2-6.4 8-14.4 14.4-20.8 20.8zM494.4 107.2c1.6 0 1.6-1.6 3.2-1.6l44.8 44.8c4.8-19.2-4.8-40 4.8-59.2h-14.4c8 8 9.6 22.4 4.8 32-6.4-6.4-16-12.8-22.4-20.8-8-11.2-19.2-12.8-30.4-9.6 6.4 8 8 48 1.6 57.6h12.8c-9.6-12.8-1.6-28.8-4.8-43.2z m288 80c-12.8 16-25.6 30.4-41.6 43.2 11.2 9.6 22.4 20.8 35.2 33.6 3.2-3.2 6.4-6.4 11.2-9.6-14.4 0-22.4-4.8-30.4-16 4.8-6.4 11.2-11.2 17.6-19.2 1.6 8 3.2 12.8 3.2 14.4 4.8-4.8 11.2-9.6 16-12.8h-17.6c0-1.6 0-1.6-1.6-3.2 4.8-4.8 11.2-11.2 16-17.6 9.6 8 17.6 14.4 12.8 28.8 3.2-3.2 6.4-8 11.2-11.2-11.2-9.6-22.4-20.8-32-30.4zM92.8 536v48c11.2-8 52.8-8 60.8 0 0-14.4-1.6-27.2-1.6-40 0-14.4-1.6-14.4-14.4-12.8 9.6 8 17.6 20.8 11.2 27.2-4.8 4.8-14.4 4.8-22.4 8-1.6-1.6-1.6-3.2-3.2-4.8 3.2-4.8 6.4-8 9.6-12.8H110.4c3.2 3.2 8 8 12.8 14.4H96c-3.2-11.2-1.6-20.8 9.6-27.2h-12.8z m182.4-331.2c11.2 3.2 19.2 11.2 16 17.6-3.2 8-14.4 11.2-24 6.4h-1.6c-8-6.4-16-12.8-20.8-20.8-3.2-4.8-3.2-14.4 0-19.2 3.2-4.8 12.8-6.4 19.2-9.6 3.2-1.6 6.4 0 8 1.6-3.2-4.8-6.4-9.6-8-11.2-4.8 3.2-8 6.4-11.2 8-14.4 8-20.8 22.4-17.6 36.8 3.2 12.8 11.2 22.4 24 25.6 14.4 3.2 27.2-1.6 35.2-12.8 9.6-12.8 9.6-16 0-27.2-1.6-1.6-3.2-4.8-4.8-8-4.8 4.8-9.6 8-14.4 12.8z m-123.2 84.8c14.4 1.6 46.4 25.6 48 38.4 3.2-3.2 4.8-8 6.4-9.6-12.8-9.6-25.6-17.6-36.8-27.2 0-1.6 0-1.6 1.6-3.2 20.8-1.6 40-1.6 64-3.2-17.6-14.4-33.6-25.6-51.2-38.4l-3.2 3.2c9.6 6.4 19.2 12.8 28.8 20.8-19.2 9.6-44.8-8-57.6 19.2zM379.2 110.4c3.2 12.8 4.8 25.6 9.6 38.4 1.6 6.4 6.4 14.4 12.8 16 22.4 8 41.6-8 36.8-32-1.6-6.4-3.2-12.8-3.2-19.2v-12.8c-3.2 1.6-8 1.6-12.8 3.2 3.2 1.6 6.4 1.6 6.4 3.2 0 12.8 3.2 27.2 3.2 41.6 0 3.2-9.6 9.6-16 9.6-3.2 0-11.2-4.8-12.8-9.6-1.6-9.6-3.2-20.8-6.4-33.6 0-3.2 1.6-6.4 1.6-9.6-6.4 1.6-14.4 3.2-19.2 4.8z m529.6 547.2c3.2-6.4 4.8-14.4 8-20.8-22.4 1.6-43.2 14.4-64-3.2-3.2 6.4-4.8 12.8-8 19.2 28.8 0 36.8 24 49.6 41.6 1.6-4.8 3.2-8 4.8-12.8-8 1.6-17.6-6.4-24-22.4 11.2-1.6 22.4-8 33.6-1.6z m-54.4-286.4c0 6.4 0 11.2-1.6 16-1.6 11.2 4.8 20.8 12.8 24 9.6 3.2 17.6-1.6 24-12.8 1.6-4.8 3.2-11.2 6.4-14.4 3.2-3.2 8-4.8 12.8-8 1.6 4.8 4.8 11.2 3.2 14.4-1.6 4.8-6.4 9.6-11.2 14.4 4.8-1.6 9.6-1.6 14.4-3.2 0-4.8 1.6-9.6 1.6-12.8 1.6-9.6-3.2-19.2-12.8-22.4-8-3.2-17.6 1.6-22.4 11.2-1.6 4.8-3.2 9.6-6.4 16s-6.4 12.8-14.4 8c-8-3.2-8-11.2-4.8-17.6 3.2-4.8 8-9.6 12.8-14.4-6.4 1.6-11.2 1.6-14.4 1.6z m62.4 217.6h11.2v-56h-11.2c3.2 3.2 6.4 6.4 8 11.2 1.6 4.8 1.6 9.6-6.4 9.6-16-1.6-32-1.6-49.6-3.2v19.2c17.6-6.4 36.8-1.6 57.6-1.6-3.2 9.6-6.4 16-9.6 20.8zM680 195.2c20.8-14.4 38.4-27.2 56-40-3.2-1.6-6.4-3.2-8-4.8-6.4 14.4-20.8 19.2-32 28.8 1.6-17.6 0-30.4 6.4-44.8-6.4-3.2-11.2-6.4-17.6-9.6-3.2 24-3.2 46.4-4.8 70.4z m-81.6-32c6.4 1.6 12.8 1.6 16 1.6 3.2-20.8 6.4-38.4 9.6-57.6-4.8 0-11.2-1.6-16-3.2-4.8 19.2-6.4 38.4-9.6 59.2zM174.4 385.6c1.6-4.8 3.2-11.2 4.8-14.4-19.2-8-36.8-14.4-56-22.4-1.6 3.2-3.2 9.6-4.8 14.4 19.2 9.6 36.8 16 56 22.4z m156.8 508.8l16 8c9.6-19.2 19.2-38.4 28.8-59.2h-22.4c3.2 8-9.6 41.6-22.4 51.2z m600-433.6c-9.6 8-49.6 8-59.2 1.6 0 8 1.6 14.4 1.6 19.2h59.2c-1.6-6.4-1.6-14.4-1.6-20.8z" fill="#FFFFFF" p-id="2731"></path><path d="M852.8 512c0 188.8-155.2 342.4-342.4 340.8C320 851.2 169.6 700.8 169.6 512c0-192 153.6-344 345.6-342.4 187.2 3.2 337.6 152 337.6 342.4z m-9.6 0c0-182.4-147.2-331.2-331.2-331.2-180.8-1.6-331.2 147.2-331.2 329.6 0 182.4 144 328 321.6 332.8 188.8 4.8 340.8-145.6 340.8-331.2zM848 312c-3.2 11.2-8 20.8-11.2 32-8-6.4-11.2-14.4-6.4-25.6 3.2-6.4 4.8-14.4 8-20.8-1.6 0-1.6-1.6-3.2-1.6-6.4 4.8-14.4 11.2-22.4 16-3.2-3.2-6.4-8-9.6-14.4 19.2-9.6 35.2-20.8 51.2-35.2 3.2 4.8 9.6 12.8 16 22.4 4.8 8 8 16 1.6 24s-14.4 6.4-24 3.2z m12.8-35.2c-8 4.8-14.4 9.6-20.8 14.4 6.4 11.2 11.2 12.8 20.8 8 8-4.8 8-11.2 0-22.4zM126.4 467.2h27.2c0 4.8 0 12.8-1.6 16-19.2-1.6-38.4-1.6-59.2-3.2v-16c8 1.6 16 1.6 25.6 3.2 0-1.6 1.6-1.6 1.6-3.2-8-8-11.2-20.8-25.6-25.6v-14.4c8 9.6 14.4 19.2 20.8 30.4 12.8-9.6 24-17.6 36.8-27.2v19.2c-11.2 6.4-19.2 12.8-28.8 17.6 3.2 1.6 3.2 3.2 3.2 3.2zM451.2 904c-11.2-11.2-12.8-20.8-6.4-27.2 8-6.4 27.2-6.4 33.6 0 6.4 6.4 4.8 14.4-6.4 22.4 11.2 16 12.8 25.6 3.2 32-9.6 6.4-28.8 4.8-33.6-3.2-6.4-8-3.2-14.4 9.6-24z m4.8 3.2c-6.4 9.6-8 20.8-1.6 24 3.2 1.6 11.2 0 11.2-1.6 6.4-11.2-1.6-17.6-9.6-22.4z m9.6-11.2c4.8-8 6.4-16-1.6-20.8-1.6-1.6-9.6 1.6-9.6 3.2-3.2 9.6 3.2 12.8 11.2 17.6zM662.4 880c-16-6.4-20.8-12.8-16-22.4 4.8-9.6 20.8-17.6 30.4-12.8 11.2 4.8 8 14.4 3.2 22.4 17.6 9.6 22.4 17.6 17.6 27.2-4.8 11.2-22.4 17.6-32 12.8-9.6-4.8-9.6-12.8-3.2-27.2z m6.4 0c-1.6 12.8 3.2 22.4 9.6 20.8 3.2 0 8-3.2 9.6-6.4 3.2-6.4-6.4-12.8-19.2-14.4z m9.6-17.6c-6.4-6.4-11.2-11.2-16-14.4 0 0-8 4.8-8 6.4 0 8 6.4 9.6 12.8 11.2 3.2 0 6.4-1.6 11.2-3.2zM150.4 656c9.6-3.2 17.6-8 25.6-11.2 1.6 4.8 4.8 12.8 6.4 19.2-11.2-3.2-54.4 14.4-57.6 24-3.2-11.2-8-20.8-11.2-32-3.2-11.2 0-20.8 8-24 9.6-3.2 17.6 1.6 24 12.8 1.6 3.2 1.6 6.4 4.8 11.2z m-4.8 1.6c-3.2-11.2-9.6-12.8-17.6-9.6-8 3.2-11.2 8-8 17.6 9.6-3.2 17.6-4.8 25.6-8zM553.6 937.6c8-6.4 14.4-12.8 22.4-20.8 0-1.6-1.6-1.6-1.6-3.2h-4.8c-11.2 1.6-19.2-1.6-22.4-12.8-3.2-9.6 0-20.8 9.6-25.6 9.6-6.4 22.4-4.8 30.4 1.6 12.8 11.2 11.2 33.6-1.6 46.4-9.6 9.6-20.8 14.4-32 14.4z m6.4-48c1.6 3.2 1.6 9.6 4.8 14.4 1.6 1.6 4.8 3.2 6.4 3.2 1.6 0 4.8-3.2 4.8-4.8 0-8-1.6-17.6-3.2-25.6 0-1.6-4.8-3.2-6.4-3.2-1.6 0-3.2 3.2-4.8 4.8 0 4.8 0 8-1.6 11.2zM492.8 107.2c3.2 14.4-4.8 30.4 4.8 43.2h-12.8c6.4-11.2 4.8-49.6-1.6-57.6 12.8-3.2 22.4-1.6 30.4 9.6 6.4 8 14.4 14.4 22.4 20.8 4.8-9.6 3.2-24-4.8-32h14.4c-9.6 19.2 0 40-4.8 59.2-14.4-16-28.8-30.4-44.8-44.8 0 0-1.6 0-3.2 1.6z" fill="#A51616" p-id="2732"></path><path d="M782.4 187.2c11.2 9.6 22.4 20.8 33.6 32l-11.2 11.2c4.8-14.4-3.2-20.8-12.8-28.8-4.8 6.4-11.2 11.2-16 17.6 0 1.6 0 1.6 1.6 3.2h17.6c-4.8 4.8-11.2 9.6-16 12.8 0-3.2-1.6-8-3.2-14.4-8 8-12.8 12.8-17.6 19.2 6.4 11.2 16 16 30.4 16-3.2 3.2-6.4 6.4-11.2 9.6-12.8-11.2-25.6-24-35.2-33.6 12.8-14.4 27.2-28.8 40-44.8zM92.8 536h14.4c-11.2 6.4-12.8 16-9.6 27.2h27.2c-6.4-6.4-9.6-11.2-12.8-14.4h22.4c-3.2 3.2-6.4 8-9.6 12.8 1.6 1.6 1.6 3.2 3.2 4.8 8-1.6 17.6-3.2 22.4-8 4.8-4.8-1.6-19.2-11.2-27.2 14.4-1.6 14.4-1.6 14.4 12.8 0 12.8 1.6 25.6 1.6 40-8-8-49.6-6.4-60.8 0-1.6-16-1.6-32-1.6-48zM275.2 204.8c4.8-4.8 8-9.6 12.8-14.4 1.6 3.2 3.2 6.4 4.8 8 9.6 11.2 9.6 14.4 0 27.2-9.6 11.2-20.8 17.6-35.2 12.8-12.8-3.2-20.8-12.8-24-25.6-3.2-14.4 4.8-28.8 17.6-36.8 3.2-1.6 6.4-4.8 11.2-8 1.6 3.2 4.8 8 8 11.2-1.6 0-4.8-1.6-8-1.6-6.4 1.6-16 3.2-19.2 9.6-3.2 3.2-3.2 14.4 0 19.2 4.8 8 14.4 14.4 20.8 20.8h1.6c9.6 4.8 19.2 1.6 24-6.4 4.8-3.2-1.6-11.2-14.4-16zM152 289.6c12.8-27.2 38.4-9.6 57.6-17.6-9.6-6.4-19.2-12.8-28.8-20.8l3.2-3.2c16 12.8 32 25.6 51.2 38.4-22.4 1.6-43.2 1.6-64 3.2 0 1.6 0 1.6-1.6 3.2 12.8 8 24 17.6 36.8 27.2-1.6 1.6-3.2 4.8-6.4 9.6 0-14.4-32-40-48-40zM377.6 110.4c6.4-1.6 12.8-3.2 20.8-4.8 0 3.2-3.2 6.4-1.6 9.6 1.6 12.8 3.2 24 6.4 35.2 1.6 4.8 9.6 9.6 12.8 9.6 6.4-1.6 16-6.4 16-9.6 0-14.4-4.8-28.8-6.4-43.2 0-1.6-4.8-3.2-6.4-3.2 4.8-1.6 9.6-1.6 12.8-3.2v12.8c1.6 6.4 3.2 12.8 3.2 19.2 4.8 24-12.8 40-36.8 32-4.8-1.6-11.2-9.6-12.8-16-3.2-12.8-4.8-25.6-8-38.4zM908.8 657.6c-11.2-6.4-22.4 0-33.6 0 6.4 16 16 24 24 22.4-1.6 4.8-3.2 8-4.8 12.8-14.4-17.6-20.8-41.6-49.6-41.6 3.2-6.4 4.8-12.8 8-19.2 20.8 17.6 43.2 4.8 64 3.2-3.2 9.6-4.8 16-8 22.4zM854.4 371.2c3.2 0 9.6-1.6 16-1.6-4.8 4.8-9.6 9.6-12.8 14.4-3.2 6.4-3.2 12.8 4.8 17.6 8 3.2 11.2-3.2 14.4-8 1.6-4.8 3.2-9.6 6.4-16 4.8-9.6 12.8-14.4 22.4-11.2 9.6 3.2 14.4 11.2 12.8 22.4 0 4.8-1.6 8-1.6 12.8-3.2 0-9.6 1.6-14.4 3.2 4.8-4.8 9.6-8 11.2-14.4 1.6-4.8-1.6-9.6-3.2-14.4-4.8 3.2-9.6 4.8-12.8 8-3.2 4.8-3.2 9.6-6.4 14.4-4.8 11.2-12.8 16-24 12.8-8-3.2-14.4-12.8-12.8-24-1.6-4.8-1.6-9.6 0-16zM916.8 588.8c3.2-4.8 6.4-11.2 11.2-19.2-22.4 0-40-4.8-57.6 1.6v-19.2c17.6 1.6 33.6 1.6 49.6 3.2 8 0 8-4.8 6.4-9.6-1.6-4.8-4.8-8-8-11.2h11.2v56c-6.4-1.6-9.6-1.6-12.8-1.6zM680 195.2c1.6-24 3.2-46.4 4.8-67.2 4.8 3.2 11.2 6.4 17.6 9.6-6.4 12.8-4.8 27.2-6.4 44.8 12.8-11.2 25.6-16 32-28.8 1.6 1.6 4.8 3.2 8 4.8-19.2 9.6-36.8 22.4-56 36.8zM596.8 161.6c3.2-19.2 6.4-38.4 9.6-59.2 4.8 0 11.2 1.6 16 3.2l-9.6 57.6c-3.2 0-9.6-1.6-16-1.6zM174.4 385.6c-19.2-6.4-36.8-14.4-56-20.8 1.6-4.8 3.2-11.2 4.8-14.4 19.2 8 38.4 14.4 56 22.4-1.6 3.2-3.2 8-4.8 12.8zM331.2 894.4c12.8-9.6 27.2-43.2 22.4-51.2h22.4c-9.6 20.8-19.2 40-28.8 59.2l-16-8zM931.2 460.8c0 8 1.6 14.4 1.6 20.8h-59.2c0-4.8-1.6-12.8-1.6-19.2 8 6.4 49.6 4.8 59.2-1.6z" fill="#A51616" p-id="2733"></path><path d="M843.2 512c0 184-152 336-340.8 331.2-177.6-4.8-321.6-150.4-321.6-332.8S331.2 179.2 512 180.8c182.4 1.6 331.2 150.4 331.2 331.2z m-20.8 0c0-171.2-139.2-310.4-308.8-310.4-176 0-313.6 139.2-312 316.8 1.6 168 139.2 304 307.2 305.6 174.4 0 313.6-139.2 313.6-312zM860.8 276.8c8 11.2 8 17.6 0 22.4-8 4.8-12.8 3.2-20.8-8 6.4-3.2 12.8-8 20.8-14.4zM456 907.2c8 6.4 16 11.2 11.2 20.8-1.6 1.6-8 3.2-11.2 1.6-6.4-1.6-6.4-12.8 0-22.4zM465.6 896c-8-4.8-14.4-8-11.2-17.6 0-1.6 8-4.8 9.6-3.2 8 4.8 8 12.8 1.6 20.8zM668.8 880c12.8 1.6 20.8 8 19.2 14.4-1.6 3.2-6.4 6.4-9.6 6.4-6.4 1.6-9.6-8-9.6-20.8zM678.4 862.4c-4.8 1.6-8 4.8-9.6 3.2-6.4-1.6-12.8-3.2-12.8-11.2 0-3.2 6.4-6.4 8-6.4 4.8 3.2 8 8 14.4 14.4zM145.6 657.6c-8 3.2-16 6.4-24 8-4.8-9.6 0-16 8-17.6 6.4-3.2 12.8-1.6 16 9.6zM560 889.6c0-4.8 0-8 1.6-9.6 1.6-1.6 3.2-4.8 4.8-4.8 3.2 0 6.4 1.6 6.4 3.2 1.6 8 3.2 17.6 3.2 25.6 0 1.6-3.2 4.8-4.8 4.8-3.2 0-6.4-1.6-6.4-3.2-1.6-6.4-3.2-11.2-4.8-16z" fill="#FFFFFF" p-id="2734"></path><path d="M822.4 512c0 172.8-139.2 310.4-313.6 310.4-169.6-1.6-305.6-136-307.2-305.6-1.6-177.6 136-316.8 312-316.8 171.2 1.6 308.8 140.8 308.8 312z m-286.4 46.4c3.2 1.6 6.4 1.6 8 1.6 35.2 11.2 59.2 33.6 78.4 64 16 24 27.2 49.6 41.6 73.6 8 14.4 17.6 17.6 30.4 11.2 14.4-6.4 19.2-19.2 12.8-33.6-17.6-36.8-36.8-72-64-102.4-25.6-28.8-56-49.6-94.4-60.8-9.6-3.2-14.4-4.8-12.8-16 1.6-16-9.6-27.2-24-27.2-12.8 0-24 12.8-24 27.2v12.8l-19.2 4.8c-43.2 17.6-80 43.2-105.6 83.2-16 24-28.8 49.6-43.2 73.6-8 14.4-1.6 28.8 12.8 36.8 12.8 6.4 22.4 1.6 30.4-14.4l19.2-38.4c19.2-40 48-70.4 88-91.2 4.8-3.2 11.2-4.8 17.6-6.4 0 14.4-1.6 25.6 0 38.4 1.6 11.2-4.8 17.6-12.8 24-11.2 8-22.4 16-32 25.6-20.8 25.6-32 56-43.2 86.4-1.6 3.2-1.6 6.4-1.6 9.6 0 12.8 11.2 24 25.6 24 9.6 1.6 14.4-4.8 19.2-19.2 1.6-8 4.8-14.4 8-22.4 8-22.4 17.6-43.2 35.2-59.2 16-14.4 35.2-14.4 51.2 0 6.4 6.4 14.4 14.4 17.6 22.4 9.6 20.8 17.6 43.2 25.6 64 6.4 14.4 20.8 19.2 32 9.6s16-20.8 9.6-35.2c-3.2-6.4-6.4-14.4-9.6-20.8-14.4-36.8-33.6-68.8-68.8-89.6-4.8-1.6-8-8-8-12.8-1.6-11.2 0-25.6 0-43.2z m-96-193.6v52.8c0 3.2-3.2 6.4-6.4 8-76.8 28.8-129.6 86.4-174.4 152-8 11.2-3.2 24 8 32 9.6 6.4 22.4 4.8 30.4-6.4 6.4-9.6 14.4-17.6 20.8-27.2 41.6-56 94.4-99.2 161.6-120 8-3.2 11.2-8 11.2-16v-92.8-62.4c0-14.4-11.2-25.6-24-25.6s-24 11.2-24 25.6v20.8c0 8-1.6 12.8-11.2 16-28.8 11.2-57.6 22.4-84.8 36.8-22.4 12.8-43.2 28.8-64 43.2-12.8 9.6-12.8 24-3.2 35.2 8 9.6 19.2 11.2 30.4 1.6 12.8-9.6 25.6-19.2 38.4-27.2 25.6-22.4 56-38.4 91.2-46.4z m142.4-3.2c24 11.2 46.4 17.6 65.6 28.8 24 12.8 44.8 30.4 67.2 46.4 14.4 9.6 28.8 6.4 35.2-9.6 4.8-11.2 1.6-19.2-11.2-30.4-38.4-30.4-80-56-128-72-9.6-3.2-22.4-3.2-27.2-9.6-4.8-6.4-1.6-19.2-3.2-30.4 0-16-9.6-27.2-24-27.2-12.8 0-24 11.2-24 27.2v153.6c0 9.6 3.2 14.4 12.8 17.6 35.2 11.2 65.6 28.8 94.4 51.2 32 25.6 57.6 59.2 83.2 91.2 9.6 12.8 22.4 16 33.6 8 12.8-8 14.4-22.4 4.8-35.2-6.4-9.6-14.4-19.2-20.8-28.8-41.6-52.8-89.6-96-153.6-121.6-1.6-1.6-4.8-4.8-4.8-6.4v-52.8z" fill="#A51616" p-id="2735"></path><path d="M536 558.4v44.8c0 4.8 4.8 11.2 8 12.8 36.8 19.2 54.4 52.8 68.8 89.6 3.2 6.4 6.4 14.4 9.6 20.8 6.4 14.4 3.2 25.6-9.6 35.2-12.8 9.6-27.2 4.8-32-9.6-8-20.8-16-43.2-25.6-64-3.2-8-11.2-16-17.6-22.4-16-14.4-35.2-14.4-51.2 0-17.6 16-27.2 38.4-35.2 59.2-3.2 6.4-4.8 14.4-8 22.4-4.8 16-11.2 20.8-20.8 20.8-14.4-1.6-24-11.2-25.6-24 0-3.2 0-6.4 1.6-9.6 11.2-30.4 22.4-60.8 43.2-86.4 9.6-9.6 20.8-19.2 32-25.6 8-6.4 12.8-12.8 12.8-24-1.6-11.2 0-24 0-38.4-6.4 3.2-12.8 4.8-17.6 6.4-40 19.2-68.8 51.2-88 91.2l-19.2 38.4c-8 16-17.6 20.8-30.4 14.4-16-8-20.8-20.8-12.8-36.8 14.4-25.6 27.2-49.6 43.2-73.6 25.6-40 62.4-65.6 105.6-83.2 6.4-1.6 11.2-3.2 19.2-4.8v-12.8c0-14.4 11.2-27.2 24-27.2 14.4 0 25.6 11.2 24 27.2 0 11.2 3.2 12.8 12.8 16 36.8 9.6 67.2 32 94.4 60.8 27.2 30.4 46.4 65.6 64 102.4 6.4 14.4 1.6 27.2-12.8 33.6-12.8 6.4-22.4 3.2-30.4-11.2-14.4-24-25.6-49.6-41.6-73.6-19.2-28.8-44.8-52.8-78.4-64-1.6-3.2-3.2-3.2-6.4-4.8zM440 364.8c-35.2 9.6-65.6 24-94.4 44.8-12.8 9.6-25.6 19.2-38.4 27.2-12.8 9.6-22.4 8-30.4-1.6-9.6-11.2-9.6-25.6 3.2-35.2 20.8-16 41.6-32 64-43.2 27.2-14.4 56-25.6 84.8-36.8 8-3.2 11.2-6.4 11.2-16v-20.8c0-14.4 9.6-24 24-25.6 12.8 0 24 11.2 24 25.6v155.2c0 8-3.2 12.8-11.2 16-67.2 20.8-118.4 64-161.6 120-6.4 9.6-14.4 17.6-20.8 27.2-8 11.2-20.8 14.4-30.4 6.4-11.2-8-16-20.8-8-32 44.8-65.6 97.6-121.6 174.4-152 3.2-1.6 6.4-4.8 6.4-8 3.2-16 3.2-33.6 3.2-51.2zM582.4 361.6V416c0 1.6 3.2 6.4 4.8 6.4 64 24 112 68.8 153.6 121.6 8 9.6 14.4 19.2 20.8 28.8 9.6 12.8 6.4 27.2-4.8 35.2-11.2 8-22.4 4.8-33.6-8-24-33.6-49.6-65.6-83.2-91.2-28.8-22.4-59.2-41.6-94.4-51.2-9.6-3.2-12.8-8-12.8-17.6v-153.6c0-16 11.2-27.2 24-27.2 14.4 0 24 11.2 24 27.2 0 9.6-3.2 22.4 3.2 30.4 4.8 6.4 17.6 6.4 27.2 9.6 46.4 16 89.6 40 128 72 12.8 11.2 16 19.2 11.2 30.4-6.4 16-20.8 20.8-35.2 9.6-22.4-16-43.2-32-67.2-46.4-19.2-12.8-41.6-19.2-65.6-30.4z" fill="#FFFFFF" p-id="2736"></path></svg>